<?xml version="1.0" encoding="UTF-8"?>
<svg width="14px" height="21px" viewBox="0 0 14 21" version="1.1" xmlns="http://www.w3.org/2000/svg" xmlns:xlink="http://www.w3.org/1999/xlink">
    <!-- Generator: sketchtool 55.2 (78181) - https://sketchapp.com -->
    <title>D6E74069-6CF8-4666-BD3A-D681955C64F8</title>
    <desc>Created with sketchtool.</desc>
    <defs>
        <path d="M16.747545,16.2195265 C16.484559,15.7174474 16.002418,15.1940087 15.3402608,14.6797802 C14.9456636,14.3733377 14.5188519,14.0945479 14.0918662,13.8507724 C13.8373369,13.705456 13.6428712,13.6058589 13.5397763,13.5576017 C13.2468582,13.4204911 13.0597264,13.1262795 13.0597264,12.8028598 L13.0597264,10.6361931 C13.0597264,10.2615138 13.3097845,9.93290152 13.6709047,9.83301721 C13.7619853,9.80782471 13.9441252,9.74665006 14.1856893,9.64642665 C14.5935828,9.47719426 15.0014111,9.26286745 15.3774307,9.00285392 C16.3957345,8.29870765 16.9763931,7.41536537 16.9763931,6.30285981 L16.9763931,3.88619315 L6.97639306,3.88619315 L6.97639306,6.30285981 C6.97639306,7.41536537 7.55705162,8.29870765 8.57535546,9.00285392 C8.95137503,9.26286745 9.35920336,9.47719426 9.76709682,9.64642665 C10.0086609,9.74665006 10.1908008,9.80782471 10.2818814,9.83301721 C10.6430016,9.93290152 10.8930597,10.2615138 10.8930597,10.6361931 L10.8930597,12.8028598 C10.8930597,13.1262795 10.7059279,13.4204911 10.4130098,13.5576017 C10.3099149,13.6058589 10.1154492,13.705456 9.86091994,13.8507724 C9.4339342,14.0945479 9.00712252,14.3733377 8.61252536,14.6797802 C7.95036814,15.1940087 7.46822716,15.7174474 7.20524116,16.2195265 L16.747545,16.2195265 Z M16.9763931,17.8861931 L6.97639306,17.8861931 L6.97639306,20.5528598 L16.9763931,20.5528598 L16.9763931,17.8861931 Z M17.8097264,22.2195265 L6.14305972,22.2195265 C5.91294108,22.2195265 5.70460775,22.1262525 5.55380407,21.9754488 C5.4030004,21.8246451 5.30972639,21.6163118 5.30972639,21.3861931 L5.30972639,17.0528598 C5.30972639,15.673028 6.18252483,14.4566812 7.59026076,13.3634395 C8.05243443,13.0045174 8.5435915,12.6836977 9.03457451,12.4033847 C9.1018446,12.3649788 9.16590076,12.3291165 9.22639306,12.2958463 L9.22639306,11.232451 C8.74705372,11.0429952 8.18923808,10.7621829 7.62743065,10.373699 C6.19781783,9.38513698 5.30972639,8.03410426 5.30972639,6.30285981 L5.30972639,3.05285981 C5.30972639,2.59262252 5.68282243,2.21952648 6.14305972,2.21952648 L17.8097264,2.21952648 C18.039845,2.21952648 18.2481784,2.31280049 18.398982,2.46360416 C18.5497857,2.61440784 18.6430597,2.82274117 18.6430597,3.05285981 L18.6430597,6.30285981 C18.6430597,8.03410426 17.7549683,9.38513698 16.3253555,10.373699 C15.763548,10.7621829 15.2057324,11.0429952 14.7263931,11.232451 L14.7263931,12.2958463 C14.7868854,12.3291165 14.8509415,12.3649788 14.9182116,12.4033847 C15.4091946,12.6836977 15.9003517,13.0045174 16.3625254,13.3634395 C17.7702613,14.4566812 18.6430597,15.673028 18.6430597,17.0528598 L18.6430597,21.3861931 C18.6430597,21.8464304 18.2699637,22.2195265 17.8097264,22.2195265 Z" id="path-1"></path>
    </defs>
    <g id="flow---primary---plain-files" stroke="none" stroke-width="1" fill="none" fill-rule="evenodd">
        <g id="ideal-1---ready-to-share" transform="translate(-89.000000, -424.000000)">
            <g id="policy-actions/03-ideal" transform="translate(72.000000, 145.000000)">
                <g id="policy/expiration---enabled-1-day" transform="translate(0.000000, 265.000000)">
                    <g id="policy/expiration">
                        <g id="policy/.default">
                            <g>
                                <g id="Icon" transform="translate(12.000000, 12.000000)">
                                    <mask id="mask-2" fill="white">
                                        <use xlink:href="#path-1"></use>
                                    </mask>
                                    <use fill="#2D323B" fill-rule="nonzero" xlink:href="#path-1"></use>
                                </g>
                            </g>
                        </g>
                    </g>
                </g>
            </g>
        </g>
    </g>
</svg>