<?xml version="1.0" encoding="UTF-8"?>
<svg width="19px" height="22px" viewBox="0 0 19 22" version="1.1" xmlns="http://www.w3.org/2000/svg" xmlns:xlink="http://www.w3.org/1999/xlink">
    <!-- Generator: sketchtool 55.2 (78181) - https://sketchapp.com -->
    <title>E54BE337-8715-44B2-84AF-B6627F214EDE</title>
    <desc>Created with sketchtool.</desc>
    <defs>
        <path d="M12.6869002,2.9447654 L5.12475487,2.9447654 C5.02952515,2.9447654 4.94519107,3.02968514 4.9451907,3.13596759 L4.93474027,19.8560646 C4.93474027,19.9611594 5.01907435,20.0460792 5.11430406,20.0460792 L14.5733435,20.0460792 L14.005458,21.9462251 L5.11430406,21.9462251 C3.96471575,21.9462251 3.0345943,21.0056529 3.0345943,19.8560646 L3.0450451,3.13478 C3.0450451,1.98519169 3.85410021,1.01917205 5.00368853,1.01917205 L13.4853971,1.04461943 L19.7558789,7.31510114 L19.7558789,12.433302 C19.48904,12.3815301 19.181861,12.3543073 18.8342867,12.3543073 C18.4812429,12.3550671 18.1550583,12.3826762 17.8557329,12.4371345 L17.8557329,8.13539154 L12.6869002,8.13539154 L12.6869002,2.9447654 Z M20.9402285,20.3401124 L21.297111,21.9898231 C21.3904546,22.2248512 21.3588179,22.4927547 21.2134776,22.6980404 C21.0681373,22.9033261 20.829772,23.0167867 20.5833459,22.9979796 L16.746859,22.9979796 C16.500433,23.0167867 16.2620676,22.9033261 16.1167274,22.6980404 C15.9713871,22.4927547 15.9397504,22.2248512 16.033094,21.9898231 L16.4791971,20.3401124 C16.6246442,19.7893394 17.0862165,19.388141 17.6390653,19.3319559 L19.7803603,19.3319559 C20.333209,19.388141 20.7947814,19.7893394 20.9402285,20.3401124 Z M18.7097128,18.41545 C17.724209,18.41545 16.9253003,17.5947826 16.9253003,16.5824381 C16.9253003,15.5700936 17.724209,14.7494263 18.7097128,14.7494263 C19.6952166,14.7494263 20.4941253,15.5700936 20.4941253,16.5824381 C20.4941253,17.5947826 19.6952166,18.41545 18.7097128,18.41545 Z" id="path-1"></path>
    </defs>
    <g id="flow---primary---plain-files" stroke="none" stroke-width="1" fill="none" fill-rule="evenodd">
        <g id="ideal-1---ready-to-share" transform="translate(-87.000000, -628.000000)">
            <g id="policy-actions/03-ideal" transform="translate(72.000000, 145.000000)">
                <g id="policy/watermarking" transform="translate(0.000000, 470.000000)">
                    <g id="policy/.default">
                        <g id="Icon" transform="translate(12.000000, 12.000000)">
                            <mask id="mask-2" fill="white">
                                <use xlink:href="#path-1"></use>
                            </mask>
                            <use fill="#2D323B" fill-rule="nonzero" xlink:href="#path-1"></use>
                        </g>
                    </g>
                </g>
            </g>
        </g>
    </g>
</svg>