<?xml version="1.0" encoding="UTF-8"?>
<svg width="46px" height="46px" viewBox="0 0 46 46" version="1.1" xmlns="http://www.w3.org/2000/svg" xmlns:xlink="http://www.w3.org/1999/xlink">
    <!-- Generator: sketchtool 59.1 (101010) - https://sketch.com -->
    <title>71009129-1F99-4C78-AF33-033140D29117</title>
    <desc>Created with sketchtool.</desc>
    <g id="flows-1.1" stroke="none" stroke-width="1" fill="none" fill-rule="evenodd">
        <g id="Flow-1:-Domain-not-whitelisted" transform="translate(-2517.000000, -1838.000000)" fill="#307A21" fill-rule="nonzero">
            <g id="07B" transform="translate(2354.000000, 1710.000000)">
                <g id="auth-content/success" transform="translate(24.000000, 79.000000)">
                    <g id="icon-Virtru-icons/24/Check-24">
                        <g transform="translate(138.000000, 48.000000)">
                            <path d="M24,1 C36.7025492,1 47,11.2974508 47,24 C47,36.7025492 36.7025492,47 24,47 C11.2974508,47 1,36.7025492 1,24 C1,11.2974508 11.2974508,1 24,1 Z M24,5.18181818 C13.6070052,5.18181818 5.18181818,13.6070052 5.18181818,24 C5.18181818,34.3929948 13.6070052,42.8181818 24,42.8181818 C34.3929948,42.8181818 42.8181818,34.3929948 42.8181818,24 C42.8181818,13.6070052 34.3929948,5.18181818 24,5.18181818 Z M34.7637187,15.8112681 C35.5882816,16.635831 35.5882816,17.9727117 34.7637187,18.7972746 L23.748,29.81 L23.751992,29.8135769 L21.0977641,32.4678048 L18.4435362,29.8135769 L18.444,29.812 L13.2362823,24.6576949 C12.4117194,23.833132 12.4117194,22.4962513 13.2362823,21.6716884 C14.0608452,20.8471254 15.3977259,20.8471254 16.2222888,21.6716884 L21.093,26.492 L31.7777122,15.8112681 C32.6022751,14.9867051 33.9391558,14.9867051 34.7637187,15.8112681 Z" id="Icon"></path>
                        </g>
                    </g>
                </g>
            </g>
        </g>
    </g>
</svg>