<?xml version="1.0" encoding="UTF-8"?>
<svg width="18px" height="18px" viewBox="0 0 18 18" version="1.1" xmlns="http://www.w3.org/2000/svg" xmlns:xlink="http://www.w3.org/1999/xlink">
    <!-- Generator: sketchtool 55.2 (78181) - https://sketchapp.com -->
    <title>54D1C3D7-D0B6-477C-9647-2B11EC220EC9</title>
    <desc>Created with sketchtool.</desc>
    <g id="flow---primary---plain-files" stroke="none" stroke-width="1" fill="none" fill-rule="evenodd">
        <g id="partial-3.2---protect-error" transform="translate(-656.000000, -313.000000)" fill="#D66400" fill-rule="nonzero">
            <g id="events-pane/01-blank" transform="translate(644.000000, 55.000000)">
                <g id="SDK" transform="translate(0.000000, 156.000000)">
                    <g id="SDK-call/blank" transform="translate(0.000000, 90.000000)">
                        <g id="SDK-call/model">
                            <g id="sizing-constraints">
                                <g id="status" transform="translate(12.000000, 12.000000)">
                                    <g id="call-status">
                                        <path d="M9,17.25 C4.44365081,17.25 0.75,13.5563492 0.75,9 C0.75,4.44365081 4.44365081,0.75 9,0.75 C13.5563492,0.75 17.25,4.44365081 17.25,9 C17.25,13.5563492 13.5563492,17.25 9,17.25 Z M9,15.75 C12.7279221,15.75 15.75,12.7279221 15.75,9 C15.75,5.27207794 12.7279221,2.25 9,2.25 C5.27207794,2.25 2.25,5.27207794 2.25,9 C2.25,12.7279221 5.27207794,15.75 9,15.75 Z M8.98740032,13.5807064 C8.36460994,13.5807064 7.85973859,13.0758351 7.85973859,12.4530447 C7.85973859,11.8302543 8.36460994,11.3253829 8.98740032,11.3253829 C9.6101907,11.3253829 10.1150621,11.8302543 10.1150621,12.4530447 C10.1150621,13.0758351 9.6101907,13.5807064 8.98740032,13.5807064 Z M8.08527088,5.48283597 C8.08527088,4.98460368 8.48916795,4.5807066 8.98740023,4.5807066 C9.48563252,4.5807066 9.88952959,4.98460368 9.88952959,5.48283597 L9.88952959,9.10699097 C9.88952959,9.60522327 9.48563252,10.0091203 8.98740023,10.0091203 C8.48916795,10.0091203 8.08527088,9.60522327 8.08527088,9.10699097 L8.08527088,5.48283597 Z" id="Icon"></path>
                                    </g>
                                </g>
                            </g>
                        </g>
                    </g>
                </g>
            </g>
        </g>
    </g>
</svg>