<?xml version="1.0" encoding="UTF-8"?>
<svg width="12px" height="11px" viewBox="0 0 12 11" version="1.1" xmlns="http://www.w3.org/2000/svg" xmlns:xlink="http://www.w3.org/1999/xlink">
    <!-- Generator: sketchtool 55.2 (78181) - https://sketchapp.com -->
    <title>6F690CE3-43D0-491E-A257-AE5943E142FC</title>
    <desc>Created with sketchtool.</desc>
    <g id="flow---primary---plain-files" stroke="none" stroke-width="1" fill="none" fill-rule="evenodd">
        <g id="share---error" transform="translate(-388.000000, -376.000000)" fill="#A70A0E" fill-rule="nonzero">
            <g id="Modal/share" transform="translate(364.000000, 228.000000)">
                <g id="Text-Field/Parts/Error-message/w-icon">
                    <g transform="translate(24.000000, 144.000000)">
                        <g id="Error-Icon" transform="translate(0.000000, 3.000000)">
                            <path d="M0.871460005,9.6683349 L5.13506151,2.32042589 C5.41224102,1.84273356 6.02418555,1.68018579 6.50187789,1.95736529 C6.65243366,2.04472481 6.77757896,2.16987012 6.86493849,2.32042589 L11.12854,9.6683349 C11.4057195,10.1460272 11.2431717,10.7579718 10.7654794,11.0351513 C10.6130145,11.1236185 10.439874,11.1702128 10.2636015,11.1702128 L1.73639849,11.1702128 C1.18411374,11.1702128 0.736398493,10.7224975 0.736398493,10.1702128 C0.736398493,9.99394028 0.782992734,9.82079977 0.871460005,9.6683349 Z M10.2636015,10.1702128 L6.00000001,2.82230378 L1.7363985,10.1702128 L10.2636015,10.1702128 Z M6,9.49064689 C5.65398591,9.49064689 5.37348606,9.21014704 5.37348606,8.86413295 C5.37348606,8.51811886 5.65398591,8.23761901 6,8.23761901 C6.34601409,8.23761901 6.62651394,8.51811886 6.62651394,8.86413295 C6.62651394,9.21014704 6.34601409,9.49064689 6,9.49064689 Z M5.49878885,4.99157696 C5.49878885,4.71476568 5.72318873,4.49036581 6,4.49036581 C6.27681127,4.49036581 6.50121115,4.71476568 6.50121115,4.99157696 L6.50121115,7.00510954 C6.50121115,7.28192081 6.27681127,7.50632069 6,7.50632069 C5.72318873,7.50632069 5.49878885,7.28192081 5.49878885,7.00510954 L5.49878885,4.99157696 Z" id="Icon"></path>
                        </g>
                    </g>
                </g>
            </g>
        </g>
    </g>
</svg>