<?xml version="1.0" encoding="UTF-8"?>
<svg width="24px" height="21px" viewBox="0 0 24 21" version="1.1" xmlns="http://www.w3.org/2000/svg" xmlns:xlink="http://www.w3.org/1999/xlink">
    <!-- Generator: sketchtool 55.2 (78181) - https://sketchapp.com -->
    <title>8268071C-A7E5-421A-AC63-D9CE8F8B342E</title>
    <desc>Created with sketchtool.</desc>
    <g id="flow---primary---plain-files" stroke="none" stroke-width="1" fill="none" fill-rule="evenodd">
        <g id="share---error" transform="translate(-518.000000, -290.000000)" fill="#A70A0E" fill-rule="nonzero">
            <g id="Modal/share" transform="translate(364.000000, 228.000000)">
                <g id="Group" transform="translate(118.000000, 60.000000)">
                    <g id="status-icon" transform="translate(36.000000, 0.000000)">
                        <path d="M0.871460005,20.8385477 L11.1350615,3.15021311 C11.412241,2.67252077 12.0241856,2.50997301 12.5018779,2.78715251 C12.6524337,2.87451203 12.777579,2.99965734 12.8649385,3.15021311 L23.12854,20.8385477 C23.4057195,21.31624 23.2431717,21.9281845 22.7654794,22.2053641 C22.6130145,22.2938313 22.439874,22.3404256 22.2636015,22.3404256 L1.73639849,22.3404256 C1.18411374,22.3404256 0.736398493,21.8927103 0.736398493,21.3404256 C0.736398493,21.1641531 0.782992734,20.9910126 0.871460005,20.8385477 Z M20.527203,20.3404256 L12,5.64460756 L3.47279699,20.3404256 L20.527203,20.3404256 Z M12,18.9812938 C11.3079718,18.9812938 10.7469721,18.4202941 10.7469721,17.7282659 C10.7469721,17.0362377 11.3079718,16.475238 12,16.475238 C12.6920282,16.475238 13.2530279,17.0362377 13.2530279,17.7282659 C13.2530279,18.4202941 12.6920282,18.9812938 12,18.9812938 Z M10.9975777,9.98315392 C10.9975777,9.42953137 11.4463775,8.98073162 12,8.98073162 C12.5536225,8.98073162 13.0024223,9.42953137 13.0024223,9.98315392 L13.0024223,14.0102191 C13.0024223,14.5638416 12.5536225,15.0126414 12,15.0126414 C11.4463775,15.0126414 10.9975777,14.5638416 10.9975777,14.0102191 L10.9975777,9.98315392 Z" id="Icon"></path>
                    </g>
                </g>
            </g>
        </g>
    </g>
</svg>