<?xml version="1.0" encoding="UTF-8"?>
<svg width="22px" height="22px" viewBox="0 0 22 22" version="1.1" xmlns="http://www.w3.org/2000/svg" xmlns:xlink="http://www.w3.org/1999/xlink">
    <!-- Generator: sketchtool 55.2 (78181) - https://sketchapp.com -->
    <title>2234E122-6901-4334-9415-F33B2C949AF1</title>
    <desc>Created with sketchtool.</desc>
    <g id="flow---primary---plain-files" stroke="none" stroke-width="1" fill="none" fill-rule="evenodd">
        <g id="share---success" transform="translate(-519.000000, -289.000000)" fill="#307A21" fill-rule="nonzero">
            <g id="Modal/share" transform="translate(364.000000, 228.000000)">
                <g id="Group" transform="translate(118.000000, 60.000000)">
                    <g id="status-icon" transform="translate(36.000000, 0.000000)">
                        <path d="M11.8796027,14.7786218 L17.147865,9.51173998 C17.5422212,9.1173838 17.5422212,8.4780061 17.147865,8.08364992 C16.7535088,7.68929374 16.1141311,7.68929374 15.7197749,8.08364992 L10.6099207,13.1921651 L8.28022507,10.8864596 C7.88586889,10.4921034 7.2464912,10.4921034 6.85213502,10.8864596 C6.45777884,11.2808158 6.45777884,11.9201935 6.85213502,12.3145497 L9.34310161,14.7798655 L10.611974,16.0498199 L11.8813874,14.7804065 L11.8796027,14.7786218 Z M12,23 C5.92486775,23 1,18.0751322 1,12 C1,5.92486775 5.92486775,1 12,1 C18.0751322,1 23,5.92486775 23,12 C23,18.0751322 18.0751322,23 12,23 Z" id="Icon"></path>
                    </g>
                </g>
            </g>
        </g>
    </g>
</svg>