<?xml version="1.0" encoding="UTF-8"?>
<svg width="18px" height="16px" viewBox="0 0 18 16" version="1.1" xmlns="http://www.w3.org/2000/svg" xmlns:xlink="http://www.w3.org/1999/xlink">
    <!-- Generator: sketchtool 55.2 (78181) - https://sketchapp.com -->
    <title>7040A21E-9EB7-4045-AD87-635D4AD8DB83</title>
    <desc>Created with sketchtool.</desc>
    <g id="flow" stroke="none" stroke-width="1" fill="none" fill-rule="evenodd">
        <g id="ideal" transform="translate(-994.000000, -549.000000)" fill="#2D323B" fill-rule="nonzero">
            <g id="events-pane/ideal" transform="translate(644.000000, 55.000000)">
                <g id="events" transform="translate(0.000000, 90.000000)">
                    <g id="Audit-event/model" transform="translate(0.000000, 391.000000)">
                        <g id="sizing-constraints">
                            <g id="download" transform="translate(350.000000, 12.000000)">
                                <path d="M9.66085049,12.4048793 C9.48352212,12.5720016 9.25313875,12.650494 9.02597361,12.6403566 C8.76964552,12.671661 8.50204511,12.5889371 8.30529282,12.3921848 L5.28433785,9.37122979 C4.94484799,9.03173993 4.94484799,8.4813181 5.28433785,8.14182823 C5.62382772,7.80233836 6.17424955,7.80233836 6.51373942,8.14182823 L8.21653062,9.84461944 L8.21653062,2.03621049 C8.21653062,1.60944501 8.56249241,1.26348322 8.98925789,1.26348322 C9.41602338,1.26348322 9.76198517,1.60944501 9.76198517,2.03621049 L9.76198517,9.84549029 L11.4712231,8.13625233 C11.810713,7.79676246 12.3611348,7.79676246 12.7006247,8.13625233 C13.0401146,8.47574219 13.0401146,9.02616402 12.7006247,9.36565389 L9.67966973,12.3866089 C9.67346622,12.3928124 9.66719228,12.3989025 9.66085049,12.4048793 L8.98925789,13.0764719 L7.8964565,11.9836705 L8.98925789,10.8908691 L10.0820593,11.9836705 L9.66085049,12.4048793 Z M1.27272727,16.7365168 C0.845961784,16.7365168 0.5,16.390555 0.5,15.9637895 C0.5,15.537024 0.845961784,15.1910622 1.27272727,15.1910622 L16.7272727,15.1910622 C17.1540382,15.1910622 17.5,15.537024 17.5,15.9637895 C17.5,16.390555 17.1540382,16.7365168 16.7272727,16.7365168 L1.27272727,16.7365168 Z" id="Icon"></path>
                            </g>
                        </g>
                    </g>
                </g>
            </g>
        </g>
    </g>
</svg>