<svg xmlns="http://www.w3.org/2000/svg" width="62px" height="19px" viewBox="0 0 62 19">
    <path d="M14.053597,16.9514101 L14.053597,7.15626665 C14.053597,6.2097591 14.7885417,5.44272755 15.6954545,5.44272755 C16.6021308,5.44272755 17.3370755,6.2097591 17.3370755,7.15626665 L17.3370755,16.9514101 C17.3370755,17.8976708 16.6021308,18.6649492 15.6954545,18.6649492 C14.7885417,18.6649492 14.053597,17.8976708 14.053597,16.9514101 Z M15.8447142,3.63969685 C14.8552393,3.63969685 14.053597,2.83286614 14.053597,1.83666661 C14.053597,0.8409866 14.8552393,0.0336363626 15.8447142,0.0336363626 C16.8341891,0.0336363626 17.6355734,0.8409866 17.6355734,1.83666661 C17.6355734,2.83286614 16.8341891,3.63969685 15.8447142,3.63969685 Z M20.9190513,16.9491207 L20.9190513,6.37431706 L21.96859,5.9278704 C22.3148553,5.78053806 25.4322426,4.51708905 28.1556468,5.53580816 C29.0512898,5.87076676 29.5032336,6.86105764 29.1644631,7.74727652 C28.8261924,8.6339898 27.8243714,9.08018926 26.9294779,8.74597227 C26.1679939,8.46144286 25.1691709,8.57293092 24.3872008,8.75536594 L24.3872008,16.9491207 C24.3872008,17.8966457 23.6107271,18.6649492 22.6531261,18.6649492 C21.695525,18.6649492 20.9190513,17.8966457 20.9190513,16.9491207 Z M34.4488376,5.55254209 L36.2430131,5.55254209 C37.1765104,5.55254209 37.9334396,6.33063578 37.9334396,7.29079388 C37.9334396,8.25070155 37.1765104,9.02904568 36.2430131,9.02904568 L34.4488376,9.02904568 L34.4488376,17.2272031 C34.4488376,18.1871108 33.6919084,18.9654549 32.7581676,18.9654549 C31.8246703,18.9654549 31.0679847,18.1871108 31.0679847,17.2272031 L31.0679847,4.47668418 C31.0679847,3.51652608 31.8246703,2.73818196 32.7581676,2.73818196 C33.6919084,2.73818196 34.4488376,3.51652608 34.4488376,4.47668418 L34.4488376,5.55254209 Z M42.0551708,18.6649492 C41.0976134,18.6649492 40.3214249,17.8893954 40.3214249,16.9326794 L40.3221743,6.25833357 L41.4238775,5.82738715 C41.7681285,5.69263841 44.8653882,4.54128532 47.5579406,5.55764014 C48.4537927,5.89600919 48.9057158,6.89539566 48.566711,7.79022708 C48.2282058,8.68480898 47.2274297,9.13571818 46.3315777,8.7978482 C45.5678801,8.50913655 44.575348,8.5907344 43.7901659,8.74769172 L43.7894164,16.9331784 C43.7894164,17.8893954 43.0132279,18.6649492 42.0554207,18.6649492 L42.0551708,18.6649492 Z M50.7688544,13.5151977 L50.7688544,7.15626665 C50.7688544,6.2097591 51.5469771,5.44272755 52.507171,5.44272755 C53.4671145,5.44272755 54.2452372,6.2097591 54.2452372,7.15626665 L54.2452372,13.5151977 C54.2452372,14.4649145 55.0293705,15.237871 55.9930706,15.237871 C56.9562698,15.237871 57.7399022,14.4649145 57.7399022,13.5151977 L57.7399022,7.15626665 C57.7399022,6.2097591 58.518025,5.44272755 59.4782189,5.44272755 C60.4381623,5.44272755 61.2162851,6.2097591 61.2162851,7.15626665 L61.2162851,13.5151977 C61.2162851,16.3547203 58.8731514,18.6649492 55.9930706,18.6649492 C53.1122384,18.6649492 50.7688544,16.3547203 50.7688544,13.5151977 Z M0.0241898734,5.93300359 L3.41992519,5.93300359 L3.41992519,14.2620155 L3.41992519,14.3743961 C5.361778,13.3790246 7.97162427,11.27516 7.97162427,7.15684126 C7.97162427,6.21012687 8.73183067,5.44272755 9.66936963,5.44272755 C10.6071532,5.44272755 11.367115,6.21012687 11.367115,7.15684126 C11.367115,14.5267893 5.28399627,17.6969117 2.08295989,18.5369262 C2.08295989,18.5369262 0.762627164,18.8706103 0.0241898734,18.9654546 L0.0241898734,5.93300359 Z"/>
</svg>