<?xml version="1.0" encoding="UTF-8"?>
<svg width="18px" height="22px" viewBox="0 0 18 22" version="1.1" xmlns="http://www.w3.org/2000/svg" xmlns:xlink="http://www.w3.org/1999/xlink">
    <!-- Generator: sketchtool 55.2 (78181) - https://sketchapp.com -->
    <title>42A64D9B-3D93-4CC9-B46C-93EF9C580D6E</title>
    <desc>Created with sketchtool.</desc>
    <g id="flow" stroke="none" stroke-width="1" fill="none" fill-rule="evenodd">
        <g id="blank" transform="translate(-27.000000, -83.000000)" fill="#2D323B" fill-rule="nonzero">
            <g id="sample" transform="translate(24.000000, 79.000000)">
                <g id="Virtru-icons/24/File-24" transform="translate(0.000000, 3.000000)">
                    <path d="M18.829287,8.46233807 L13.3888284,8.46233807 L13.3888284,2.99894082 L5.42928699,2.99894082 C5.32905288,2.99894082 5.24028699,3.08832314 5.2402866,3.20019082 L5.22928699,20.7989408 C5.22928699,20.9095585 5.31805288,20.9989408 5.41828699,20.9989408 L18.629287,20.9989408 C18.7347175,20.9989408 18.829287,20.9043713 18.829287,20.7989408 L18.829287,8.46233807 Z M5.42928699,0.998940817 L14.229287,0.998940817 L20.829287,7.59894082 L20.829287,20.7989408 C20.829287,22.0089408 19.839287,22.9989408 18.629287,22.9989408 L5.41828699,22.9989408 C4.20828699,22.9989408 3.22928699,22.0089408 3.22928699,20.7989408 L3.24028699,3.19894082 C3.24028699,1.98894082 4.21928699,0.998940817 5.42928699,0.998940817 Z" id="Icon"></path>
                </g>
            </g>
        </g>
    </g>
</svg>