<?xml version="1.0" encoding="UTF-8"?>
<svg width="22px" height="18px" viewBox="0 0 22 18" version="1.1" xmlns="http://www.w3.org/2000/svg" xmlns:xlink="http://www.w3.org/1999/xlink">
    <!-- Generator: sketchtool 55.2 (78181) - https://sketchapp.com -->
    <title>D6F3B61D-617D-4B7F-B509-A586B637534F</title>
    <desc>Created with sketchtool.</desc>
    <g id="flow---primary---plain-files" stroke="none" stroke-width="1" fill="none" fill-rule="evenodd">
        <g id="ideal-1---ready-to-share" transform="translate(-85.000000, -160.000000)" fill="#2D323B" fill-rule="nonzero">
            <g id="policy-actions/03-ideal" transform="translate(72.000000, 145.000000)">
                <g id="policy/access/03-ideal">
                    <g id="policy/access">
                        <g id="policy/access/list/.heading">
                            <g id="policy/.default">
                                <g id="Icon" transform="translate(12.000000, 12.000000)">
                                    <path d="M12.030909,17.5171399 C11.8349466,14.5429519 8.27188041,14.5429519 7.52146461,14.5429519 C6.80415598,14.5429519 3.00443183,14.5429519 3.00443183,17.7774414 C3.00443183,17.7909055 3.00420378,17.804038 3.00375301,17.8168457 L3.00375301,19.5513468 C3.00375301,20.1036316 2.55603776,20.5513468 2.00375301,20.5513468 C1.45146826,20.5513468 1.00375301,20.1036316 1.00375301,19.5513468 L1.00375301,17.6641937 C0.999554068,17.6258818 0.997494168,17.5841192 0.997494168,17.5385322 C1.05100124,14.2926851 4.11254877,12.5183287 7.52146461,12.5183287 C10.9303804,12.5183287 14.0335727,14.4042862 14.0335727,17.5385322 C14.0335727,17.6114675 14.0327391,17.6747946 14.0306848,17.7298072 L14.0306848,19.5513468 C14.0306848,20.1036316 13.5829695,20.5513468 13.0306848,20.5513468 C12.4784,20.5513468 12.0306848,20.1036316 12.0306848,19.5513468 L12.0306848,17.5385322 C12.0306848,17.5313836 12.0307598,17.5242527 12.030909,17.5171399 Z M13.5633997,12.9767562 C14.4456988,12.6737552 15.4407944,12.5183287 16.4903977,12.5183287 C20.0367601,12.5183287 23.0025058,14.4042862 23.0025058,17.5385322 C23.0025058,17.6114675 23.0016722,17.6747946 22.9996179,17.7298072 L22.9996179,19.5513468 C22.9996179,20.1036316 22.5519026,20.5513468 21.9996179,20.5513468 C21.4473331,20.5513468 20.9996179,20.1036316 20.9996179,19.5513468 L20.9996179,17.5385322 C20.9996179,17.5336754 20.9996525,17.5288268 20.9997215,17.5239865 C20.8024225,14.6470008 17.2406601,14.5429519 16.4903977,14.5429519 C16.2478292,14.5429519 15.6527697,14.5429519 14.9713584,14.6680327 C14.6181835,13.9924865 14.1426904,13.4282161 13.5633997,12.9767562 Z M16.5155334,11.604792 C14.7509006,11.604792 13.0539137,9.74729497 13.0539137,7.56229083 C13.0539137,5.12413149 14.2976703,3.51978963 16.5155334,3.51978963 C18.7333966,3.51978963 19.9771532,5.12413149 19.9771532,7.56229083 C19.9771532,9.74729497 18.2801663,11.604792 16.5155334,11.604792 Z M16.5155334,9.66188151 C17.2897371,9.66188151 18.1643446,8.70454891 18.1643446,7.56229083 C18.1643446,6.19285157 17.598299,5.46270016 16.5155334,5.46270016 C15.4327679,5.46270016 14.8667223,6.19285157 14.8667223,7.56229083 C14.8667223,8.70454891 15.7413298,9.66188151 16.5155334,9.66188151 Z M7.5243458,11.5336556 C5.75971293,11.5336556 4.06272609,9.67615849 4.06272609,7.49115436 C4.06272609,5.05299502 5.30648262,3.44865316 7.5243458,3.44865316 C9.74220899,3.44865316 10.9859655,5.05299502 10.9859655,7.49115436 C10.9859655,9.67615849 9.28897868,11.5336556 7.5243458,11.5336556 Z M7.5243458,9.59324748 C8.29947219,9.59324748 9.17512208,8.63477386 9.17512208,7.49115436 C9.17512208,6.1200829 8.60840187,5.38906124 7.5243458,5.38906124 C6.44028973,5.38906124 5.87356952,6.1200829 5.87356952,7.49115436 C5.87356952,8.63477386 6.74921942,9.59324748 7.5243458,9.59324748 Z"></path>
                                </g>
                            </g>
                        </g>
                    </g>
                </g>
            </g>
        </g>
    </g>
</svg>