<?xml version="1.0" encoding="UTF-8"?>
<svg width="12px" height="12px" viewBox="0 0 12 12" version="1.1" xmlns="http://www.w3.org/2000/svg" xmlns:xlink="http://www.w3.org/1999/xlink">
    <!-- Generator: sketchtool 56.2 (101010) - https://sketch.com -->
    <title>963D6C5F-5177-4D92-A73C-0683F007D6BD</title>
    <desc>Created with sketchtool.</desc>
    <g id="handoff" stroke="none" stroke-width="1" fill="none" fill-rule="evenodd">
        <g id="Policy---Access---Anon" transform="translate(-94.000000, -693.000000)" fill="#2D323B" fill-rule="nonzero">
            <g id="Group" transform="translate(74.000000, 510.000000)">
                <g id="policy/access/01-blank" transform="translate(0.000000, 60.000000)">
                    <g id="policy/access/list/01-grant-form" transform="translate(0.000000, 78.000000)">
                        <g id="email-field" transform="translate(20.000000, 0.000000)">
                            <g id="Message-Area" transform="translate(0.000000, 42.000000)">
                                <g id="Error-Icon" transform="translate(0.000000, 3.000000)">
                                    <path d="M6,11.5 C2.96243388,11.5 0.5,9.03756612 0.5,6 C0.5,2.96243388 2.96243388,0.5 6,0.5 C9.03756612,0.5 11.5,2.96243388 11.5,6 C11.5,9.03756612 9.03756612,11.5 6,11.5 Z M6,10.5 C8.48528137,10.5 10.5,8.48528137 10.5,6 C10.5,3.51471863 8.48528137,1.5 6,1.5 C3.51471863,1.5 1.5,3.51471863 1.5,6 C1.5,8.48528137 3.51471863,10.5 6,10.5 Z M6.01084607,4.34825627 C5.64495743,4.34825627 5.34834607,4.05164492 5.34834607,3.68575627 C5.34834607,3.31986762 5.64495743,3.02325627 6.01084607,3.02325627 C6.37673472,3.02325627 6.67334607,3.31986762 6.67334607,3.68575627 C6.67334607,4.05164492 6.37673472,4.34825627 6.01084607,4.34825627 Z M5.4094265,5.61431885 C5.4094265,5.28216399 5.67869122,5.01289928 6.01084607,5.01289928 C6.34300093,5.01289928 6.61226564,5.28216399 6.61226564,5.61431885 L6.61226564,8.3754805 C6.61226564,8.70763536 6.34300093,8.97690007 6.01084607,8.97690007 C5.67869122,8.97690007 5.4094265,8.70763536 5.4094265,8.3754805 L5.4094265,5.61431885 Z" id="Icon"></path>
                                </g>
                            </g>
                        </g>
                    </g>
                </g>
            </g>
        </g>
    </g>
</svg>